<svg xmlns="http://www.w3.org/2000/svg" width="512" height="512"><path d="M503.475 0h-34.133a8.536 8.536 0 0 0-8.533 8.533v110.933h-34.133V51.2h8.533a8.536 8.536 0 0 0 8.533-8.533V8.533A8.536 8.536 0 0 0 435.209 0h-153.6a8.536 8.536 0 0 0-8.533 8.533v34.133a8.536 8.536 0 0 0 8.533 8.533h8.533v68.267h-34.133V8.533A8.536 8.536 0 0 0 247.476 0h-42.667v76.8a8.541 8.541 0 0 1-4.719 7.637 8.57 8.57 0 0 1-8.943-.811l-29.013-21.76-29.013 21.76a8.525 8.525 0 0 1-8.934.811 8.549 8.549 0 0 1-4.719-7.637V0H76.8a8.536 8.536 0 0 0-8.533 8.533v110.933H51.2V8.533A8.536 8.536 0 0 0 42.667 0H8.533A8.536 8.536 0 0 0 0 8.533v460.8a8.536 8.536 0 0 0 8.533 8.533h8.533v17.067H8.533c-4.71 0-8.533 3.823-8.533 8.533S3.823 512 8.533 512h34.133c4.71 0 8.533-3.823 8.533-8.533s-3.823-8.533-8.533-8.533h-8.533v-17.067h8.533a8.536 8.536 0 0 0 8.533-8.533V455.8l63.266-63.266h283.068l63.266 63.266v13.534a8.536 8.536 0 0 0 8.533 8.533h8.533v17.067h-8.533c-4.71 0-8.533 3.823-8.533 8.533s3.823 8.533 8.533 8.533h34.133c4.71 0 8.533-3.823 8.533-8.533s-3.823-8.533-8.533-8.533h-8.533v-17.067h8.533a8.536 8.536 0 0 0 8.533-8.533V8.533c.011-4.71-3.812-8.533-8.523-8.533zM290.142 17.067h136.533v17.067H290.142V17.067zm-238.933 153.6h39.134l-39.134 39.134v-39.134zm0 261v-39.134h39.134l-39.134 39.134zm409.6 0l-39.125-39.134h39.125v39.134zm0-56.2h-409.6V358.4h409.599v17.067zm-187.734-34.134V307.2h119.467v34.133H273.075zm187.734 0h-17.067V230.4a8.536 8.536 0 0 0-8.533-8.533h-34.133v42.667a8.536 8.536 0 0 1-8.533 8.533h-51.2a8.536 8.536 0 0 1-8.533-8.533v-42.667h-34.133a8.536 8.536 0 0 0-8.533 8.533v59.733h-17.067V281.6a8.536 8.536 0 0 0-8.533-8.533h-102.4a8.536 8.536 0 0 0-8.533 8.533v59.733h-25.6v-42.667c0-11.11-7.151-20.497-17.067-24.03v-27.17a8.536 8.536 0 0 0-8.533-8.533 8.536 8.536 0 0 0-8.533 8.533v27.17c-9.916 3.533-17.067 12.919-17.067 24.03v42.667h-25.6v-107.4l63.266-63.266h283.068l63.266 63.266v107.4zm0-131.532l-39.125-39.134h39.125v39.134zm0-56.201h-409.6v-17.067H460.81V153.6z" fill="#082f2c"/><path fill="#082f2c" d="M349.875 221.867h34.133V256h-34.133zM136.542 0v59.733l20.48-15.36c1.519-1.135 3.319-1.707 5.12-1.707s3.601.572 5.12 1.707l20.48 15.36V0h-51.2z"/></svg>